<?xml version="1.0" encoding="UTF-8"?>
<svg version="1.1" xmlns="http://www.w3.org/2000/svg" width="673" height="371">
<path d="M0 0 C-0.47726055 4.29534495 -3.020204 6.06187947 -6 9 C-7.87670448 11.08833948 -9.68719956 13.23113201 -11.5 15.375 C-12.55164605 16.61104926 -13.60374615 17.84671233 -14.65625 19.08203125 C-15.20023438 19.72092285 -15.74421875 20.35981445 -16.3046875 21.01806641 C-19.72218816 25.01335303 -23.17918543 28.97465438 -26.63476562 32.93701172 C-27.40336914 33.82090576 -27.40336914 33.82090576 -28.1875 34.72265625 C-28.91259766 35.55627686 -28.91259766 35.55627686 -29.65234375 36.40673828 C-30.8971019 37.87834909 -32.07697973 39.40418711 -33.25 40.93359375 C-33.8275 41.61550781 -34.405 42.29742187 -35 43 C-35.66 43 -36.32 43 -37 43 C-37.37125 44.1446875 -37.37125 44.1446875 -37.75 45.3125 C-39.1494465 48.32130998 -40.37090924 49.08793399 -43 51 C-43.64775391 52.10988281 -43.64775391 52.10988281 -44.30859375 53.2421875 C-46.26571844 56.43324992 -48.55285312 58.90629205 -51.125 61.625 C-55.57057429 66.37686095 -59.73785137 71.28117484 -63.8203125 76.3515625 C-66.67369308 79.81857331 -69.69254956 83.11733888 -72.72265625 86.4296875 C-76.01704246 90.14787982 -79.0847475 94.03913174 -82.15234375 97.9453125 C-82.76207031 98.62335938 -83.37179687 99.30140625 -84 100 C-84.66 100 -85.32 100 -86 100 C-86.37125 101.175625 -86.37125 101.175625 -86.75 102.375 C-88.22139994 105.46493987 -89.07318455 105.53659227 -92 107 C-92.28875 107.74636719 -92.5775 108.49273437 -92.875 109.26171875 C-94.15264724 112.37154762 -95.75405206 114.32296579 -98 116.8125 C-98.70125 117.60269531 -99.4025 118.39289063 -100.125 119.20703125 C-102 121 -102 121 -104 121 C-104.21785156 121.5259375 -104.43570312 122.051875 -104.66015625 122.59375 C-106.50710249 125.91071468 -108.95797391 128.64870663 -111.4375 131.5 C-112.41638898 132.63453361 -113.39427981 133.76992933 -114.37109375 134.90625 C-115.05921143 135.70289063 -115.05921143 135.70289063 -115.76123047 136.515625 C-116.80551033 137.76694971 -117.77391493 139.08102403 -118.72265625 140.40625 C-119.35494141 141.19515625 -119.35494141 141.19515625 -120 142 C-120.66 142 -121.32 142 -122 142 C-122.268125 142.5775 -122.53625 143.155 -122.8125 143.75 C-124.02929189 146.05550043 -125.30333879 148.02056192 -127 150 C-127.66 150 -128.32 150 -129 150 C-129.22558594 150.70898438 -129.45117188 151.41796875 -129.68359375 152.1484375 C-131.26351417 155.57081704 -133.47358048 157.95454318 -136.0625 160.625 C-139.64243062 164.42042726 -143.09901155 168.24638447 -146.375 172.3125 C-151.52909028 178.70687939 -156.93098643 184.87496455 -162.32275391 191.06835938 C-165.06121581 194.22217459 -167.78188222 197.39114961 -170.5 200.5625 C-170.97993408 201.12171143 -171.45986816 201.68092285 -171.9543457 202.25708008 C-175.00051881 205.81282211 -178.0094927 209.39730552 -181 213 C-185.52293008 212.44098617 -188.84950502 210.52993858 -192.625 208.125 C-193.19734375 207.77308594 -193.7696875 207.42117188 -194.359375 207.05859375 C-197.23295553 205.26093523 -199.64065887 203.41518353 -202 201 C-203.87763306 200.06118347 -205.75725188 199.12605137 -207.6484375 198.21484375 C-212.29833313 195.81265514 -216.61940843 192.855207 -221 190 C-225.64946392 186.97228816 -230.31401073 183.97092826 -235 181 C-235.89589844 180.42121094 -236.79179687 179.84242188 -237.71484375 179.24609375 C-238.48957031 178.77300781 -239.26429688 178.29992187 -240.0625 177.8125 C-240.71347656 177.40644531 -241.36445313 177.00039063 -242.03515625 176.58203125 C-244.99854281 175.70420899 -246.2907665 176.56244753 -249 178 C-251.32161278 179.60335499 -253.56977087 181.23141651 -255.8125 182.9375 C-261.36681382 187.08602805 -266.97674727 191.13170504 -272.6875 195.0625 C-273.693573 195.7594397 -273.693573 195.7594397 -274.7199707 196.47045898 C-277.74533075 198.54555309 -280.69688693 200.39139175 -284 202 C-284.5775 202.598125 -285.155 203.19625 -285.75 203.8125 C-287.76332095 205.76989537 -289.68545932 207.30196957 -292 208.875 C-292.66 209.32617188 -293.32 209.77734375 -294 210.2421875 C-296 211 -296 211 -298.01806641 210.28417969 C-300.3782488 208.75491639 -300.81093531 207.83909254 -301.7109375 205.2109375 C-301.98309082 204.44233398 -302.25524414 203.67373047 -302.53564453 202.88183594 C-302.95112549 201.64095215 -302.95112549 201.64095215 -303.375 200.375 C-303.98371305 198.63778875 -304.59309865 196.90081302 -305.203125 195.1640625 C-305.50412109 194.29297852 -305.80511719 193.42189453 -306.11523438 192.52441406 C-307.38332908 188.90628512 -308.75413886 185.33011492 -310.125 181.75 C-311.95870849 176.90995907 -313.65959116 172.05193088 -315.25 167.125 C-317.99727614 158.72156711 -321.21716693 150.50697553 -324.43457031 142.27392578 C-326.56854545 136.79848609 -328.61744195 131.34677652 -330.31982422 125.72021484 C-330.95533448 123.77962183 -330.95533448 123.77962183 -333 122 C-334.6396875 121.62875 -334.6396875 121.62875 -336.3125 121.25 C-341.4275076 120.07530567 -345.93323291 117.81266236 -350.65625 115.5703125 C-355.69895083 113.20212823 -360.84369463 111.10635379 -366 109 C-368.89651072 107.81414752 -371.79226863 106.6264725 -374.6875 105.4375 C-375.42476318 105.13481201 -376.16202637 104.83212402 -376.92163086 104.52026367 C-381.24546745 102.73951608 -385.53669611 100.90538365 -389.796875 98.9765625 C-394.49276907 96.89504917 -399.25243268 94.96007855 -404 93 C-404 92.01 -404 91.02 -404 90 C-395.23397471 87.27150206 -386.48729519 85.22740547 -377.47338867 83.50537109 C-372.26150999 82.49521334 -367.17642637 81.30140508 -362.0625 79.875 C-357.54151737 78.61673299 -353.14804932 77.64383672 -348.5 77 C-343.9195844 76.36229081 -339.58204389 75.4222881 -335.125 74.1875 C-329.03405322 72.50106139 -322.93097231 71.06675667 -316.75 69.75 C-306.41737332 67.54389963 -296.11228111 65.2287254 -285.8125 62.875 C-284.69276794 62.6199469 -284.69276794 62.6199469 -283.55041504 62.35974121 C-275.51608962 60.52907383 -267.49611314 58.66335652 -259.51611328 56.60546875 C-257.04086244 56.00983299 -254.57325934 55.54315015 -252.0625 55.125 C-245.71317615 54.03155638 -239.47912313 52.48260295 -233.22680664 50.93994141 C-226.88249108 49.39160104 -220.50684395 48.09101764 -214.10009766 46.82788086 C-207.42683875 45.49567128 -200.78802428 44.00239795 -194.14672852 42.52050781 C-191.80472241 41.99826568 -189.46197461 41.47945155 -187.11914062 40.9609375 C-179.54080838 39.27781202 -171.98974529 37.53053253 -164.46557617 35.61669922 C-161.40888601 34.85214834 -158.33687812 34.19319464 -155.25 33.5625 C-148.83760464 32.21773718 -142.51401232 30.63212375 -136.1796875 28.96484375 C-132.902395 28.15682796 -129.6178161 27.58794574 -126.28515625 27.0546875 C-119.97378605 26.03591134 -113.78234927 24.6569832 -107.5625 23.1875 C-106.43215332 22.92396729 -105.30180664 22.66043457 -104.13720703 22.38891602 C-98.91631075 21.16874736 -93.69980838 19.93144703 -88.48828125 18.671875 C-78.25177829 16.19909345 -67.99681186 13.92120363 -57.67944336 11.80883789 C-51.05294014 10.44669641 -44.4667876 8.96868624 -37.89111328 7.38085938 C-33.31814601 6.2848682 -28.74027425 5.33272405 -24.125 4.4375 C-0.50941493 -0.16980498 -0.50941493 -0.16980498 0 0 Z " fill="#EDEDED" transform="translate(540,86)"/>
<path d="M0 0 C-1.41845622 4.5132698 -3.64587565 6.73079019 -7 10 C-14.3906286 17.68713807 -21.32373063 25.68440904 -28 34 C-29.94867199 36.40126678 -31.91555624 38.71219587 -34 41 C-34.66 41 -35.32 41 -36 41 C-36.37125 42.1446875 -36.37125 42.1446875 -36.75 43.3125 C-38.1494465 46.32130998 -39.37090924 47.08793399 -42 49 C-42.43183594 49.73992187 -42.86367188 50.47984375 -43.30859375 51.2421875 C-45.26571844 54.43324992 -47.55285312 56.90629205 -50.125 59.625 C-54.57057429 64.37686095 -58.73785137 69.28117484 -62.8203125 74.3515625 C-65.67369308 77.81857331 -68.69254956 81.11733888 -71.72265625 84.4296875 C-75.01704246 88.14787982 -78.0847475 92.03913174 -81.15234375 95.9453125 C-81.76207031 96.62335938 -82.37179687 97.30140625 -83 98 C-83.66 98 -84.32 98 -85 98 C-85.37125 99.175625 -85.37125 99.175625 -85.75 100.375 C-87.22139994 103.46493987 -88.07318455 103.53659227 -91 105 C-91.28875 105.74636719 -91.5775 106.49273437 -91.875 107.26171875 C-93.15264724 110.37154762 -94.75405206 112.32296579 -97 114.8125 C-97.70125 115.60269531 -98.4025 116.39289063 -99.125 117.20703125 C-101 119 -101 119 -103 119 C-103.21785156 119.5259375 -103.43570313 120.051875 -103.66015625 120.59375 C-105.50710249 123.91071468 -107.95797391 126.64870663 -110.4375 129.5 C-111.41638898 130.63453361 -112.39427981 131.76992933 -113.37109375 132.90625 C-114.05921143 133.70289063 -114.05921143 133.70289063 -114.76123047 134.515625 C-115.80551033 135.76694971 -116.77391493 137.08102403 -117.72265625 138.40625 C-118.14417969 138.9321875 -118.56570313 139.458125 -119 140 C-119.66 140 -120.32 140 -121 140 C-121.268125 140.5775 -121.53625 141.155 -121.8125 141.75 C-123.02929189 144.05550043 -124.30333879 146.02056192 -126 148 C-126.66 148 -127.32 148 -128 148 C-128.22558594 148.70898438 -128.45117188 149.41796875 -128.68359375 150.1484375 C-130.26351417 153.57081704 -132.47358048 155.95454318 -135.0625 158.625 C-138.64243062 162.42042726 -142.09901155 166.24638447 -145.375 170.3125 C-150.52909028 176.70687939 -155.93098643 182.87496455 -161.32275391 189.06835938 C-164.06121581 192.22217459 -166.78188222 195.39114961 -169.5 198.5625 C-169.97993408 199.12171143 -170.45986816 199.68092285 -170.9543457 200.25708008 C-174.00051881 203.81282211 -177.0094927 207.39730552 -180 211 C-184.52293008 210.44098617 -187.84950502 208.52993858 -191.625 206.125 C-192.19734375 205.77308594 -192.7696875 205.42117188 -193.359375 205.05859375 C-196.23295553 203.26093523 -198.64065887 201.41518353 -201 199 C-202.87763306 198.06118347 -204.75725188 197.12605137 -206.6484375 196.21484375 C-210.2172093 194.37117593 -213.5434147 192.19016338 -216.91015625 190.00390625 C-219.1781626 188.53299948 -221.45394276 187.0845735 -223.74609375 185.65234375 C-224.37950684 185.25362061 -225.01291992 184.85489746 -225.66552734 184.4440918 C-226.90920268 183.66123258 -228.15554406 182.88258932 -229.40478516 182.10864258 C-232.34193184 180.24661968 -234.0396873 178.94046906 -236 176 C-238.29861967 174.57274497 -238.29861967 174.57274497 -241 173.25 C-245.73370374 170.75404712 -250.01322211 167.96407053 -254.3515625 164.84375 C-258.31295915 162.08596354 -262.44027489 159.61771009 -266.5625 157.109375 C-275.52093679 151.64163944 -284.3005309 145.86868948 -293 140 C-290.44575033 137.98049303 -288.06140332 136.44807548 -285.0625 135.1875 C-279.91509558 132.98636367 -274.87176837 130.58415416 -269.8203125 128.171875 C-267 127 -267 127 -264 127 C-264 126.34 -264 125.68 -264 125 C-263.38253906 124.75765625 -262.76507813 124.5153125 -262.12890625 124.265625 C-257.02498951 122.24581016 -251.98901491 120.13882425 -247.0078125 117.83203125 C-245.02211717 117.00916529 -243.0955553 116.46515689 -241 116 C-241 115.34 -241 114.68 -241 114 C-238.03 113.505 -238.03 113.505 -235 113 C-235 112.34 -235 111.68 -235 111 C-233.73542969 110.49339844 -233.73542969 110.49339844 -232.4453125 109.9765625 C-231.34960938 109.53054687 -230.25390625 109.08453125 -229.125 108.625 C-228.03445313 108.18414062 -226.94390625 107.74328125 -225.8203125 107.2890625 C-222.93670638 106.16948662 -222.93670638 106.16948662 -221 104 C-219.64406519 103.41223427 -218.26428167 102.87890894 -216.875 102.375 C-212.19118369 100.559515 -207.72953433 98.4482096 -203.25 96.1875 C-202.23220459 95.67485596 -202.23220459 95.67485596 -201.19384766 95.15185547 C-197.78616519 93.42830967 -194.38941033 91.68495889 -191 89.92578125 C-190.36803711 89.60134033 -189.73607422 89.27689941 -189.08496094 88.94262695 C-187.35021494 88.05148083 -185.6202628 87.15102062 -183.890625 86.25 C-181 85 -181 85 -177 85 C-177 84.34 -177 83.68 -177 83 C-165.80553052 77.22965491 -165.80553052 77.22965491 -160.25 75.125 C-155.99013149 73.4788363 -151.93939357 71.51052444 -147.875 69.4375 C-141.00040902 65.93329852 -134.02616788 62.68847421 -127 59.5 C-119.67251925 56.16937848 -112.40098497 52.7771764 -105.2265625 49.12890625 C-99.03152577 45.98704713 -92.76751516 42.99415997 -86.5 40 C-79.69627816 36.74932174 -72.90841404 33.48118844 -66.1875 30.0625 C-55.3643405 24.57544392 -44.28822191 19.5999802 -33.2734375 14.51269531 C-28.86556757 12.47576497 -24.46109777 10.43187329 -20.0625 8.375 C-19.40193604 8.06884766 -18.74137207 7.76269531 -18.06079102 7.44726562 C-15.34438621 6.17439059 -12.74919203 4.84763677 -10.18359375 3.2890625 C-8 2 -8 2 -6 2 C-6 1.34 -6 0.68 -6 0 C-3.50907189 -1.24546405 -2.58919267 -0.7767578 0 0 Z " fill="#F6F6F5" transform="translate(539,88)"/>
<path d="M0 0 C-0.375 1.9375 -0.375 1.9375 -1 4 C-1.66 4.33 -2.32 4.66 -3 5 C-2.67 4.01 -2.34 3.02 -2 2 C-3.65 2 -5.3 2 -7 2 C-7 2.66 -7 3.32 -7 4 C-17.75803174 9.4032659 -28.54408256 14.74431891 -39.375 20 C-40.09267548 20.34861084 -40.81035095 20.69722168 -41.54977417 21.05639648 C-50.35789832 25.33076726 -59.18738782 29.51102883 -68.16723633 33.41503906 C-73.36028866 35.68178287 -78.42210719 38.15431926 -83.47290039 40.72070312 C-89.76863066 43.91199504 -96.13102663 46.95798217 -102.5 50 C-109.38802877 53.29048235 -116.25826929 56.60195396 -123.0625 60.0625 C-130.81630327 64.00259779 -138.7340601 67.5801835 -146.66625977 71.14477539 C-151.95181998 73.53471102 -157.00173644 76.05946312 -162 79 C-164.32481174 80.01965427 -166.65794699 81.02059602 -169 82 C-170.0725 82.556875 -171.145 83.11375 -172.25 83.6875 C-175 85 -175 85 -178 85 C-178 85.66 -178 86.32 -178 87 C-179.09570312 87.38414062 -180.19140625 87.76828125 -181.3203125 88.1640625 C-186.69860331 90.1824004 -191.76058658 92.77206607 -196.875 95.375 C-197.80441406 95.84421875 -198.73382813 96.3134375 -199.69140625 96.796875 C-203.37889732 98.65862084 -207.06420921 100.52461961 -210.74707031 102.39550781 C-211.61686523 102.83475586 -212.48666016 103.27400391 -213.3828125 103.7265625 C-214.53740967 104.31171631 -214.53740967 104.31171631 -215.71533203 104.90869141 C-218.10661839 106.050928 -220.53522674 107.02833526 -223 108 C-224.34075292 108.67291577 -225.67464552 109.35974148 -227 110.0625 C-229.98662055 111.58409267 -232.64024934 112.58003117 -236 113 C-236 113.66 -236 114.32 -236 115 C-237.98 115.33 -239.96 115.66 -242 116 C-242 116.66 -242 117.32 -242 118 C-246.55114803 120.31850937 -251.12933017 122.57301327 -255.75 124.75 C-256.65234375 125.17796875 -257.5546875 125.6059375 -258.484375 126.046875 C-261 127 -261 127 -265 127 C-265 127.66 -265 128.32 -265 129 C-273.35453315 132.73207037 -273.35453315 132.73207037 -277.3125 134.375 C-282.6659509 136.64577657 -287.81686408 139.37013301 -293 142 C-291.83597656 142.70962891 -291.83597656 142.70962891 -290.6484375 143.43359375 C-284.20035839 147.38092619 -277.80039772 151.38915223 -271.45361328 155.49731445 C-266.91831294 158.4268057 -262.33941147 161.28123769 -257.75 164.125 C-252.37637951 167.45742805 -247.13212515 170.90390898 -242.015625 174.625 C-240.07206331 175.95084053 -238.12798809 177.00310468 -236 178 C-236.66 178.33 -237.32 178.66 -238 179 C-238.928125 178.484375 -239.85625 177.96875 -240.8125 177.4375 C-243.79390753 175.68979315 -243.79390753 175.68979315 -246.2734375 176.6015625 C-249.72604165 178.37238239 -252.73548834 180.59676312 -255.8125 182.9375 C-261.36681382 187.08602805 -266.97674727 191.13170504 -272.6875 195.0625 C-273.693573 195.7594397 -273.693573 195.7594397 -274.7199707 196.47045898 C-277.74533075 198.54555309 -280.69688693 200.39139175 -284 202 C-284.5775 202.598125 -285.155 203.19625 -285.75 203.8125 C-287.76332095 205.76989537 -289.68545932 207.30196957 -292 208.875 C-292.66 209.32617188 -293.32 209.77734375 -294 210.2421875 C-296 211 -296 211 -298.01806641 210.28417969 C-300.3782488 208.75491639 -300.81093531 207.83909254 -301.7109375 205.2109375 C-301.98309082 204.44233398 -302.25524414 203.67373047 -302.53564453 202.88183594 C-302.81263184 202.05458008 -303.08961914 201.22732422 -303.375 200.375 C-303.98371305 198.63778875 -304.59309865 196.90081302 -305.203125 195.1640625 C-305.50412109 194.29297852 -305.80511719 193.42189453 -306.11523438 192.52441406 C-307.38332908 188.90628512 -308.75413886 185.33011492 -310.125 181.75 C-311.95870849 176.90995907 -313.65959116 172.05193088 -315.25 167.125 C-317.99727614 158.72156711 -321.21716693 150.50697553 -324.43457031 142.27392578 C-326.56994893 136.79488499 -328.6291406 131.32316254 -330.41748047 125.72021484 C-330.98416387 123.91775013 -330.98416387 123.91775013 -332 122 C-331.14019531 121.88011719 -330.28039062 121.76023437 -329.39453125 121.63671875 C-325.96740934 120.99388691 -322.95518468 120.021739 -319.6875 118.8125 C-318.46546875 118.36519531 -317.2434375 117.91789062 -315.984375 117.45703125 C-315.33791016 117.21936035 -314.69144531 116.98168945 -314.02539062 116.73681641 C-311.22755366 115.71899192 -308.41690924 114.73917121 -305.60620117 113.75756836 C-298.59177479 111.30729648 -291.64777199 108.72447044 -284.7265625 106.01953125 C-282 105 -282 105 -278.25 103.9375 C-275.57309056 103.16531459 -273.32474419 102.28484179 -270.8125 101.125 C-257.45723684 95 -257.45723684 95 -252 95 C-248.95906076 93.75880031 -245.96716578 92.44048093 -242.97851562 91.0793457 C-237.58189789 88.63716634 -232.12656639 86.46641427 -226.5625 84.4375 C-225.73500244 84.13303955 -224.90750488 83.8285791 -224.05493164 83.51489258 C-218.99367318 81.67032074 -213.9296861 79.97104258 -208.71484375 78.60546875 C-206.76981206 78.0573774 -206.76981206 78.0573774 -205 76 C-202.73101487 75.08728794 -200.43464259 74.24179342 -198.125 73.4375 C-196.27261719 72.78587891 -196.27261719 72.78587891 -194.3828125 72.12109375 C-192.55198713 71.51434215 -190.71120309 70.92793133 -188.83984375 70.4609375 C-186.60479112 69.90098801 -184.56651024 69.06786503 -182.4375 68.1875 C-176.06128132 65.59745548 -169.61953209 63.19197442 -163.08203125 61.0390625 C-159.83051823 59.94286166 -156.63716859 58.73906883 -153.4375 57.5 C-152.34308594 57.0771875 -151.24867188 56.654375 -150.12109375 56.21875 C-148.2519113 55.48885648 -146.3851312 54.75269472 -144.5234375 54.00390625 C-141.42693269 52.77201502 -138.3091124 51.6043647 -135.1875 50.4375 C-133.76430871 49.90498588 -132.34113263 49.37243112 -130.91796875 48.83984375 C-130.13856934 48.54835449 -129.35916992 48.25686523 -128.55615234 47.95654297 C-122.66245033 45.75104875 -116.7709667 43.53962734 -110.87915039 41.32910156 C-106.33991265 39.62630167 -101.80037279 37.92438772 -97.2578125 36.23046875 C-90.87719109 33.84926829 -84.50982405 31.45169654 -78.2109375 28.859375 C-76.59532483 28.23139834 -74.95703147 27.6609217 -73.30859375 27.125 C-69.02885072 25.66978631 -64.87224039 23.95619178 -60.6875 22.25 C-53.4879776 19.33726156 -46.25257248 16.6235202 -38.91113281 14.09228516 C-32.82217251 11.97826602 -26.92315721 9.5492069 -21 7 C-24.63 7 -28.26 7 -32 7 C-32 6.67 -32 6.34 -32 6 C-31.04480469 5.81824219 -30.08960938 5.63648437 -29.10546875 5.44921875 C-0.39672544 -0.13224181 -0.39672544 -0.13224181 0 0 Z " fill="#CECED2" transform="translate(540,86)"/>
<path d="M0 0 C-0.375 1.9375 -0.375 1.9375 -1 4 C-1.66 4.33 -2.32 4.66 -3 5 C-2.67 4.01 -2.34 3.02 -2 2 C-3.65 2 -5.3 2 -7 2 C-7 2.66 -7 3.32 -7 4 C-23.70842825 12.44646925 -23.70842825 12.44646925 -32 16 C-33.32 15.01 -34.64 14.02 -36 13 C-31.05 11.02 -26.1 9.04 -21 7 C-24.63 7 -28.26 7 -32 7 C-32 6.67 -32 6.34 -32 6 C-31.04480469 5.81824219 -30.08960938 5.63648437 -29.10546875 5.44921875 C-0.39672544 -0.13224181 -0.39672544 -0.13224181 0 0 Z " fill="#D4D4D5" transform="translate(540,86)"/>
<path d="M0 0 C0.99 0.33 1.98 0.66 3 1 C-0.94460664 5.2296661 -5.22160457 8.44753631 -10 11.6875 C-11.04800781 12.41549805 -11.04800781 12.41549805 -12.1171875 13.15820312 C-15.63694069 15.56558149 -18.92048608 17.63750609 -23 19 C-22.67 16.69 -22.34 14.38 -22 12 C-21.01 11.67 -20.02 11.34 -19 11 C-18.67 11.99 -18.34 12.98 -18 14 C-14.08396696 11.20579508 -14.08396696 11.20579508 -12 7 C-11.34870203 5.65909241 -10.68486725 4.32407669 -10 3 C-9.67 3.99 -9.34 4.98 -9 6 C-6.55519921 5.81171228 -6.55519921 5.81171228 -4 5 C-2.77472052 3.04978917 -2.77472052 3.04978917 -2 1 C-1.34 0.67 -0.68 0.34 0 0 Z " fill="#959698" transform="translate(278,269)"/>
<path d="M0 0 C0.33 0.66 0.66 1.32 1 2 C-0.73656095 3.22756895 -2.48980377 4.43156853 -4.25 5.625 C-5.22453125 6.29789062 -6.1990625 6.97078125 -7.203125 7.6640625 C-10 9 -10 9 -12.3125 8.40625 C-14 7 -14 7 -14.75 3.875 C-14.8325 2.92625 -14.915 1.9775 -15 1 C-14.67 1.66 -14.34 2.32 -14 3 C-12.06669397 4.09166275 -12.06669397 4.09166275 -10 5 C-9.34 5.33 -8.68 5.66 -8 6 C-8.33 5.01 -8.66 4.02 -9 3 C-5.81237635 0.87491756 -3.73487777 0.4979837 0 0 Z " fill="#7E7F80" transform="translate(254,288)"/>
<path d="M0 0 C0 0.33 0 0.66 0 1 C-3.96 1.99 -7.92 2.98 -12 4 C-12.33 5.65 -12.66 7.3 -13 9 C-15.31 8.34 -17.62 7.68 -20 7 C-20 6.01 -20 5.02 -20 4 C-17.79471728 3.32331051 -15.58561391 2.65906502 -13.375 2 C-12.14523438 1.62875 -10.91546875 1.2575 -9.6484375 0.875 C-6.26153174 0.06272281 -3.46145571 -0.17041013 0 0 Z " fill="#9E9E9E" transform="translate(156,172)"/>
<path d="M0 0 C3.69876091 1.37287342 6.9514476 3.06355453 10.3125 5.125 C11.19550781 5.66382813 12.07851563 6.20265625 12.98828125 6.7578125 C13.65214844 7.16773438 14.31601562 7.57765625 15 8 C14.01 8.495 14.01 8.495 13 9 C12.113125 8.484375 11.22625 7.96875 10.3125 7.4375 C6.1017658 5.61020025 4.19291141 6.40669367 0 8 C0 5.36 0 2.72 0 0 Z " fill="#818283" transform="translate(289,256)"/>
<path d="M0 0 C-0.375 1.9375 -0.375 1.9375 -1 4 C-1.99 4.495 -1.99 4.495 -3 5 C-2.67 4.01 -2.34 3.02 -2 2 C-3.65 2 -5.3 2 -7 2 C-7 2.66 -7 3.32 -7 4 C-10.69541586 4.95024979 -13.30458414 4.95024979 -17 4 C-14.04925888 2.43220483 -11.12880766 1.29925425 -7.9375 0.3125 C-7.08027344 0.04050781 -6.22304688 -0.23148437 -5.33984375 -0.51171875 C-3 -1 -3 -1 0 0 Z " fill="#7C7C7B" transform="translate(540,86)"/>
<path d="M0 0 C3.45925163 1.2491742 6.14693203 2.67527795 9 5 C8.67 5.99 8.34 6.98 8 8 C7.34 8 6.68 8 6 8 C5.67 8.66 5.34 9.32 5 10 C4.34 10 3.68 10 3 10 C3 9.34 3 8.68 3 8 C4.32 7.67 5.64 7.34 7 7 C7 6.34 7 5.68 7 5 C5.02 4.34 3.04 3.68 1 3 C1 5.31 1 7.62 1 10 C0.67 10 0.34 10 0 10 C0 6.7 0 3.4 0 0 Z " fill="#9D9FA3" transform="translate(245,228)"/>
<path d="M0 0 C-2.51699845 2.51699845 -4.57554146 3.10964078 -8 4 C-9.875 3.625 -9.875 3.625 -12 3 C-14.67303078 2.90195447 -17.32391191 2.95539853 -20 3 C-20 2.67 -20 2.34 -20 2 C-13.23514355 0.3879491 -6.95041086 -0.26618595 0 0 Z " fill="#B9B9BA" transform="translate(528,90)"/>
<path d="M0 0 C1.32 0.66 2.64 1.32 4 2 C2.44499019 5.81684226 -0.03595495 8.19195732 -3 11 C-3.33 9.68 -3.66 8.36 -4 7 C-3.34 7 -2.68 7 -2 7 C-2 6.34 -2 5.68 -2 5 C-1.34 5 -0.68 5 0 5 C-0.2784375 4.0409375 -0.2784375 4.0409375 -0.5625 3.0625 C-0.706875 2.381875 -0.85125 1.70125 -1 1 C-0.67 0.67 -0.34 0.34 0 0 Z " fill="#CBCBC8" transform="translate(428,210)"/>
<path d="M0 0 C0.99 0.33 1.98 0.66 3 1 C-0.70090521 4.9252025 -4.54959656 7.94580156 -9 11 C-9.66 10.67 -10.32 10.34 -11 10 C-10.43410156 9.60167969 -9.86820312 9.20335937 -9.28515625 8.79296875 C-8.55167969 8.26316406 -7.81820313 7.73335938 -7.0625 7.1875 C-6.33160156 6.66542969 -5.60070312 6.14335937 -4.84765625 5.60546875 C-2.73116774 4.04132873 -2.73116774 4.04132873 -2 1 C-1.34 0.67 -0.68 0.34 0 0 Z " fill="#727274" transform="translate(278,269)"/>
<path d="M0 0 C2.4375 0.6875 2.4375 0.6875 5 2 C5.8125 4.625 5.8125 4.625 6 7 C4.02 7 2.04 7 0 7 C0 4.69 0 2.38 0 0 Z " fill="#939496" transform="translate(264,240)"/>
<path d="M0 0 C0.66 0.33 1.32 0.66 2 1 C1.835 1.598125 1.67 2.19625 1.5 2.8125 C0.8885876 5.11344336 0.8885876 5.11344336 1 8 C-4.875 5.25 -4.875 5.25 -6 3 C-4.03533587 1.93224776 -2.03144641 0.93446535 0 0 Z " fill="#EDEDEF" transform="translate(252,224)"/>
<path d="M0 0 C0.33 0.66 0.66 1.32 1 2 C2.3153341 2.70151152 3.65117592 3.36525925 5 4 C5.99 4.66 6.98 5.32 8 6 C6.35 6.66 4.7 7.32 3 8 C0 3.375 0 3.375 0 0 Z " fill="#747676" transform="translate(239,289)"/>
<path d="M0 0 C-3.28463659 2.18975773 -6.20696275 2.99806563 -10 4 C-9.25 2.0625 -9.25 2.0625 -8 0 C-5.05360248 -1.27677226 -3.00864103 -0.96706319 0 0 Z " fill="#F7F7F8" transform="translate(520,93)"/>
<path d="M0 0 C-0.66 1.32 -1.32 2.64 -2 4 C-2.33 3.67 -2.66 3.34 -3 3 C-4.51928038 2.92820036 -6.04167482 2.91607993 -7.5625 2.9375 C-8.80193359 2.95103516 -8.80193359 2.95103516 -10.06640625 2.96484375 C-11.02353516 2.98224609 -11.02353516 2.98224609 -12 3 C-7.86112344 0.24074896 -4.92824278 -0.13689563 0 0 Z " fill="#949494" transform="translate(303,139)"/>
<path d="M0 0 C7.42857143 1 7.42857143 1 11 2 C11 2.66 11 3.32 11 4 C6.44262737 3.56179109 3.42346555 3.14958831 0 0 Z " fill="#727272" transform="translate(195,203)"/>
<path d="M0 0 C0.33 0.99 0.66 1.98 1 3 C1.66 3.66 2.32 4.32 3 5 C0.525 6.485 0.525 6.485 -2 8 C-2.6875 6.25 -2.6875 6.25 -3 4 C-1.5625 1.75 -1.5625 1.75 0 0 Z " fill="#B0B1B4" transform="translate(268,272)"/>
<path d="M0 0 C0.99 0.495 0.99 0.495 2 1 C2 1.66 2 2.32 2 3 C2.99 2.67 3.98 2.34 5 2 C4.67 4.31 4.34 6.62 4 9 C1.3144406 6.3144406 0.93950026 3.62378672 0 0 Z " fill="#797B7C" transform="translate(229,263)"/>
<path d="M0 0 C1.32 0.66 2.64 1.32 4 2 C2.71349294 2.69710731 1.42059335 3.38242876 0.125 4.0625 C-0.95394531 4.63677734 -0.95394531 4.63677734 -2.0546875 5.22265625 C-2.69664062 5.47917969 -3.33859375 5.73570312 -4 6 C-4.66 5.67 -5.32 5.34 -6 5 C-5.38125 4.9175 -4.7625 4.835 -4.125 4.75 C-1.81562433 4.18741541 -1.81562433 4.18741541 -0.75 1.9375 C-0.5025 1.298125 -0.255 0.65875 0 0 Z " fill="#E0E0E1" transform="translate(294,202)"/>
<path d="M0 0 C-1.77444972 2.24606427 -2.58352485 2.95081002 -5.48046875 3.29296875 C-6.37378906 3.25816406 -7.26710937 3.22335938 -8.1875 3.1875 C-9.08855469 3.16042969 -9.98960937 3.13335937 -10.91796875 3.10546875 C-11.94857422 3.05326172 -11.94857422 3.05326172 -13 3 C-8.49192825 0.69441653 -5.09714099 -0.14158725 0 0 Z " fill="#717171" transform="translate(249,151)"/>
<path d="M0 0 C-3.06246747 1.78409802 -5.22079273 2.22880021 -8.75 2.125 C-9.54921875 2.10695313 -10.3484375 2.08890625 -11.171875 2.0703125 C-11.77515625 2.04710938 -12.3784375 2.02390625 -13 2 C-8.7920942 -0.80527053 -4.85771358 -1.68151624 0 0 Z " fill="#7C7C7A" transform="translate(450,107)"/>
<path d="M0 0 C2.31 0.33 4.62 0.66 7 1 C7.66 2.65 8.32 4.3 9 6 C5.88802644 4.50164236 2.91164984 2.86022073 0 1 C0 0.67 0 0.34 0 0 Z " fill="#818181" transform="translate(313,271)"/>
<path d="M0 0 C-1.43120744 0.55808089 -2.87030355 1.09596462 -4.3125 1.625 C-5.11300781 1.92664063 -5.91351563 2.22828125 -6.73828125 2.5390625 C-7.48464844 2.69117188 -8.23101562 2.84328125 -9 3 C-9.99 2.34 -10.98 1.68 -12 1 C-3.96428571 -1.27678571 -3.96428571 -1.27678571 0 0 Z " fill="#959595" transform="translate(182,167)"/>
</svg>
